<svg width="32" height="32" viewBox="0 0 32 32" fill="none" xmlns="http://www.w3.org/2000/svg">
<rect width="32" height="32" rx="3" fill="white"/>
<path d="M11.7842 9.44238C11.708 9.49512 11.5967 9.52441 11.4502 9.53027C11.3037 9.53613 11.1484 9.53027 10.9844 9.5127C10.8203 9.49512 10.6621 9.47754 10.5098 9.45996C10.3633 9.44238 10.2461 9.43945 10.1582 9.45117C10.0293 9.44531 9.83301 9.4541 9.56934 9.47754C9.31152 9.49512 9.01855 9.52441 8.69043 9.56543C8.3623 9.60645 8.02246 9.65625 7.6709 9.71484C7.31934 9.76758 6.99121 9.82617 6.68652 9.89062C6.38184 9.95508 6.12109 10.0225 5.9043 10.0928C5.6875 10.1572 5.5498 10.2188 5.49121 10.2773C5.46777 10.3066 5.42676 10.4033 5.36816 10.5674C5.31543 10.7256 5.25684 10.9336 5.19238 11.1914C5.12793 11.4434 5.06348 11.7334 4.99902 12.0615C4.93457 12.3838 4.87598 12.7207 4.82324 13.0723C4.77637 13.4238 4.73828 13.7783 4.70898 14.1357C4.67969 14.4932 4.67383 14.833 4.69141 15.1553C5.0957 15.0381 5.50293 14.9385 5.91309 14.8564C6.3291 14.7686 6.78613 14.6748 7.28418 14.5752C7.5127 14.5342 7.75879 14.4727 8.02246 14.3906C8.28613 14.3086 8.54688 14.2295 8.80469 14.1533C9.06836 14.0713 9.31738 14.001 9.55176 13.9424C9.78613 13.8838 9.99121 13.8545 10.167 13.8545C10.3252 13.8545 10.457 13.8691 10.5625 13.8984C10.668 13.9277 10.7559 13.9746 10.8262 14.0391C10.8965 14.0977 10.9521 14.1768 10.9932 14.2764C11.0342 14.3701 11.0723 14.4844 11.1074 14.6191C11.1133 14.6602 11.0986 14.71 11.0635 14.7686C11.0283 14.8213 10.9814 14.8799 10.9229 14.9443C10.8701 15.0029 10.8145 15.0586 10.7559 15.1113C10.7031 15.1641 10.6621 15.208 10.6328 15.2432C10.5684 15.3076 10.4512 15.3691 10.2812 15.4277C10.1172 15.4805 9.94141 15.5273 9.75391 15.5684C9.56641 15.6094 9.38184 15.6445 9.2002 15.6738C9.02441 15.7031 8.89258 15.7266 8.80469 15.7441C8.50586 15.8027 8.19238 15.8643 7.86426 15.9287C7.54199 15.9873 7.22266 16.0518 6.90625 16.1221C6.5957 16.1865 6.29688 16.251 6.00977 16.3154C5.72852 16.3799 5.47656 16.4443 5.25391 16.5088C5.03125 16.5732 4.84961 16.6348 4.70898 16.6934C4.57422 16.752 4.49512 16.8076 4.47168 16.8604C4.4248 16.9658 4.38672 17.1035 4.35742 17.2734C4.32812 17.4375 4.30176 17.6221 4.27832 17.8271C4.26074 18.0264 4.24902 18.2373 4.24316 18.46C4.2373 18.6826 4.23145 18.9023 4.22559 19.1191C4.22559 19.3359 4.22852 19.5439 4.23438 19.7432C4.24023 19.9424 4.24609 20.1152 4.25195 20.2617C4.25195 20.4609 4.25488 20.6543 4.26074 20.8418C4.27246 21.0293 4.25781 21.2139 4.2168 21.3955C4.17578 21.5244 4.10254 21.624 3.99707 21.6943C3.89746 21.7646 3.73633 21.791 3.51367 21.7734C3.48438 21.7676 3.41699 21.7441 3.31152 21.7031C3.20605 21.668 3.09473 21.6064 2.97754 21.5186C2.86621 21.4365 2.76367 21.3311 2.66992 21.2021C2.58203 21.0791 2.53809 20.9268 2.53809 20.7451C2.53223 20.0361 2.56445 19.3682 2.63477 18.7412C2.71094 18.1084 2.78711 17.4814 2.86328 16.8604C2.92188 16.3623 2.98926 15.8438 3.06543 15.3047C3.1416 14.7656 3.21777 14.2236 3.29395 13.6787C3.37598 13.1338 3.45801 12.5947 3.54004 12.0615C3.62207 11.5225 3.69824 11.0039 3.76855 10.5059C3.78027 10.4121 3.77734 10.3184 3.75977 10.2246C3.74219 10.125 3.71875 10.0283 3.68945 9.93457C3.66016 9.83496 3.62793 9.73828 3.59277 9.64453C3.56348 9.54492 3.54004 9.44824 3.52246 9.35449C3.51074 9.2666 3.53125 9.17285 3.58398 9.07324C3.63672 8.97363 3.7041 8.88281 3.78613 8.80078C3.86816 8.71289 3.95605 8.64258 4.0498 8.58984C4.14355 8.53125 4.23145 8.50488 4.31348 8.51074C4.43066 8.52246 4.53613 8.53711 4.62988 8.55469C4.72949 8.57227 4.82324 8.58691 4.91113 8.59863C4.99902 8.61035 5.08691 8.62207 5.1748 8.63379C5.2627 8.63965 5.35645 8.64258 5.45605 8.64258C5.62598 8.64258 5.81934 8.62793 6.03613 8.59863C6.25879 8.56934 6.4873 8.53418 6.72168 8.49316C6.96191 8.44629 7.20215 8.39941 7.44238 8.35254C7.68848 8.2998 7.91699 8.25293 8.12793 8.21191C8.77832 8.09473 9.37598 7.99805 9.9209 7.92188C10.4658 7.83984 10.9668 7.79883 11.4238 7.79883C11.4941 7.79883 11.5791 7.81641 11.6787 7.85156C11.7842 7.88672 11.8867 7.93066 11.9863 7.9834C12.0859 8.03613 12.1709 8.09766 12.2412 8.16797C12.3174 8.23242 12.3584 8.2998 12.3643 8.37012C12.376 8.52246 12.3438 8.69824 12.2676 8.89746C12.1973 9.09082 12.0361 9.27246 11.7842 9.44238ZM20.6436 17.0625C20.1748 17.7129 19.6973 18.3018 19.2109 18.8291C18.7305 19.3564 18.2529 19.8076 17.7783 20.1826C17.3096 20.5518 16.8496 20.8389 16.3984 21.0439C15.9531 21.249 15.5371 21.3516 15.1504 21.3516C14.5234 21.3516 14.0283 21.082 13.665 20.543C13.3076 20.0039 13.1289 19.21 13.1289 18.1611C13.1289 17.5752 13.1641 16.9307 13.2344 16.2275C13.3047 15.5244 13.3955 14.8125 13.5068 14.0918C13.6182 13.3711 13.7412 12.6621 13.876 11.9648C14.0166 11.2676 14.1572 10.6318 14.2979 10.0576C14.4033 9.61816 14.5088 9.2373 14.6143 8.91504C14.7256 8.59277 14.8428 8.3291 14.9658 8.12402C15.0889 7.91895 15.2207 7.7666 15.3613 7.66699C15.5078 7.56738 15.6719 7.51758 15.8535 7.51758C15.9707 7.51758 16.0762 7.54395 16.1699 7.59668C16.2695 7.64941 16.3545 7.7168 16.4248 7.79883C16.4951 7.88086 16.5479 7.97754 16.583 8.08887C16.624 8.19434 16.6445 8.30273 16.6445 8.41406C16.6445 8.51953 16.6152 8.66309 16.5566 8.84473C16.5039 9.02051 16.4336 9.2168 16.3457 9.43359C16.2637 9.65039 16.1729 9.87891 16.0732 10.1191C15.9736 10.3594 15.877 10.5908 15.7832 10.8135C15.6895 11.0303 15.6045 11.2324 15.5283 11.4199C15.458 11.6074 15.4082 11.7598 15.3789 11.877C15.291 12.2578 15.2031 12.7031 15.1152 13.2129C15.0273 13.7168 14.9453 14.2412 14.8691 14.7861C14.7988 15.3252 14.7402 15.8643 14.6934 16.4033C14.6465 16.9365 14.623 17.4258 14.623 17.8711C14.623 18.2637 14.6582 18.5889 14.7285 18.8467C14.7988 19.0986 14.8867 19.3008 14.9922 19.4531C15.1035 19.5996 15.2207 19.7051 15.3438 19.7695C15.4727 19.8281 15.5928 19.8574 15.7041 19.8574C15.9092 19.8574 16.1348 19.8047 16.3809 19.6992C16.627 19.5879 16.8848 19.4355 17.1543 19.2422C17.4297 19.0488 17.7109 18.8232 17.998 18.5654C18.291 18.3018 18.584 18.0176 18.877 17.7129C19.1699 17.4082 19.46 17.0889 19.7471 16.7549C20.0342 16.415 20.3096 16.0723 20.5732 15.7266C20.6729 15.5918 20.752 15.4893 20.8105 15.4189C20.8691 15.3486 20.9248 15.3135 20.9775 15.3135C21.042 15.3135 21.0889 15.3516 21.1182 15.4277C21.1533 15.498 21.1709 15.5918 21.1709 15.709C21.1709 15.8027 21.1562 15.9082 21.127 16.0254C21.0977 16.1367 21.0596 16.2539 21.0127 16.377C20.9658 16.4941 20.9102 16.6113 20.8457 16.7285C20.7812 16.8457 20.7139 16.957 20.6436 17.0625ZM28.6064 13.3711C28.6064 13.4121 28.5947 13.4824 28.5713 13.582C28.5537 13.6758 28.5303 13.7812 28.501 13.8984C28.4717 14.0098 28.4395 14.1211 28.4043 14.2324C28.3691 14.3438 28.3398 14.4346 28.3164 14.5049C28.2578 14.6572 28.1846 14.8447 28.0967 15.0674C28.0146 15.29 27.9238 15.5361 27.8242 15.8057C27.7305 16.0693 27.6309 16.3447 27.5254 16.6318C27.4258 16.9189 27.3291 17.2031 27.2354 17.4844C27.1475 17.7598 27.0625 18.0205 26.9805 18.2666C26.9043 18.5127 26.8398 18.7266 26.7871 18.9082C26.7344 19.0898 26.667 19.3096 26.585 19.5674C26.5088 19.8193 26.4238 20.0918 26.3301 20.3848C26.2363 20.6777 26.1396 20.9824 26.04 21.2988C25.9404 21.6211 25.8408 21.9404 25.7412 22.2568C25.6416 22.5732 25.5449 22.8809 25.4512 23.1797C25.3633 23.4785 25.2812 23.7539 25.2051 24.0059C25.1523 24.1758 25.1055 24.3574 25.0645 24.5508C25.0293 24.75 24.9766 24.9346 24.9062 25.1045C24.8418 25.2744 24.748 25.415 24.625 25.5264C24.502 25.6436 24.3232 25.7021 24.0889 25.7021C23.9951 25.7021 23.9102 25.6787 23.834 25.6318C23.7578 25.585 23.6934 25.5264 23.6406 25.4561C23.5879 25.3857 23.5469 25.3066 23.5176 25.2188C23.4883 25.1309 23.4736 25.0459 23.4736 24.9639C23.4736 24.8291 23.5059 24.6562 23.5703 24.4453C23.6406 24.2344 23.7256 24 23.8252 23.7422C23.9248 23.4844 24.0303 23.2119 24.1416 22.9248C24.2588 22.6377 24.3672 22.3506 24.4668 22.0635C24.6133 21.624 24.7539 21.208 24.8887 20.8154C25.0293 20.4229 25.1494 20.0742 25.249 19.7695C25.3486 19.459 25.4277 19.207 25.4863 19.0137C25.5508 18.8145 25.583 18.6914 25.583 18.6445C25.583 18.5859 25.5742 18.5391 25.5566 18.5039C25.5391 18.4629 25.5068 18.4424 25.46 18.4424C25.4189 18.4424 25.3311 18.4893 25.1963 18.583C25.0615 18.6709 24.8916 18.7822 24.6865 18.917C24.4873 19.0518 24.2617 19.1982 24.0098 19.3564C23.7637 19.5088 23.5059 19.6523 23.2363 19.7871C22.9727 19.9219 22.709 20.0361 22.4453 20.1299C22.1816 20.2178 21.9326 20.2617 21.6982 20.2617C21.335 20.2617 21.0127 20.2002 20.7314 20.0771C20.4561 19.9541 20.2217 19.7988 20.0283 19.6113C19.8408 19.418 19.6973 19.207 19.5977 18.9785C19.498 18.7441 19.4482 18.5186 19.4482 18.3018C19.4482 18.126 19.4658 17.9092 19.501 17.6514C19.542 17.3877 19.5947 17.1064 19.6592 16.8076C19.7295 16.5029 19.8115 16.1895 19.9053 15.8672C19.999 15.5449 20.0986 15.2344 20.2041 14.9355C20.3096 14.6367 20.418 14.3584 20.5293 14.1006C20.6465 13.8428 20.7637 13.6289 20.8809 13.459C21.0391 13.2246 21.1826 13.0605 21.3115 12.9668C21.4404 12.873 21.5693 12.8262 21.6982 12.8262C21.8154 12.8262 21.9092 12.8467 21.9795 12.8877C22.0557 12.9287 22.1143 12.9844 22.1553 13.0547C22.2021 13.125 22.2314 13.207 22.2432 13.3008C22.2607 13.3945 22.2695 13.4941 22.2695 13.5996C22.2695 13.6816 22.2227 13.8223 22.1289 14.0215C22.0352 14.2148 21.9209 14.4521 21.7861 14.7334C21.6572 15.0088 21.5195 15.3193 21.373 15.665C21.2324 16.0107 21.1123 16.374 21.0127 16.7549C20.9541 16.9424 20.9131 17.1504 20.8896 17.3789C20.8721 17.6016 20.8633 17.8066 20.8633 17.9941C20.8633 18.1641 20.9072 18.3047 20.9951 18.416C21.083 18.5273 21.1885 18.6182 21.3115 18.6885C21.4346 18.7529 21.5576 18.7998 21.6807 18.8291C21.8096 18.8584 21.915 18.873 21.9971 18.873C22.2549 18.873 22.5098 18.8291 22.7617 18.7412C23.0137 18.6475 23.2598 18.5332 23.5 18.3984C23.7461 18.2637 23.9834 18.1201 24.2119 17.9678C24.4463 17.8096 24.6748 17.6689 24.8975 17.5459C25.0967 17.4287 25.3018 17.2852 25.5127 17.1152C25.7236 16.9453 25.9082 16.752 26.0664 16.5352C26.1367 16.4414 26.2188 16.2744 26.3125 16.0342C26.4062 15.7881 26.5029 15.5127 26.6025 15.208C26.7021 14.9033 26.8018 14.5898 26.9014 14.2676C27.001 13.9395 27.0889 13.6465 27.165 13.3887C27.2588 13.0781 27.376 12.8496 27.5166 12.7031C27.6631 12.5566 27.8037 12.4834 27.9385 12.4834C28.0967 12.4834 28.2197 12.5098 28.3076 12.5625C28.3955 12.6152 28.46 12.6826 28.501 12.7646C28.5479 12.8467 28.5771 12.9404 28.5889 13.0459C28.6006 13.1514 28.6064 13.2598 28.6064 13.3711Z" fill="#5C02DB"/>
</svg>
