<svg width="163" height="44" viewBox="0 0 163 44" fill="none" xmlns="http://www.w3.org/2000/svg">
<path d="M1 5.24572C10.1312 14.8921 17.3436 18.9755 29.0581 18.2898C39.6371 17.6707 51.1445 11.0544 60.9837 6.23314C73.1654 0.263953 97.0778 -4.40131 104.156 14.6001C109.652 29.3541 101.414 46.997 88.4499 42.1954C83.4519 40.3442 80.8691 31.5574 83.083 25.4615C85.4741 18.8774 92.6223 15.7033 97.5658 14.1843C110.842 10.1048 119.688 26.4826 131.701 29.3591C142.925 32.0465 151.26 25.4255 159.759 16.471C160.487 15.704 160.115 20.8072 160.115 22.0836C160.115 26.7626 160.825 24.6859 160.825 21.1481C160.825 18.8728 161.735 14.0352 159.404 15.3276C157.723 16.26 154.188 16.471 152.301 16.471" stroke="black" stroke-linecap="round"/>
<path d="M74.5684 8.88477C74.416 8.99023 74.1934 9.04883 73.9004 9.06055C73.6074 9.07227 73.2969 9.06055 72.9688 9.02539C72.6406 8.99023 72.3242 8.95508 72.0195 8.91992C71.7266 8.88477 71.4922 8.87891 71.3164 8.90234C71.0586 8.89062 70.666 8.9082 70.1387 8.95508C69.623 8.99023 69.0371 9.04883 68.3809 9.13086C67.7246 9.21289 67.0449 9.3125 66.3418 9.42969C65.6387 9.53516 64.9824 9.65234 64.373 9.78125C63.7637 9.91016 63.2422 10.0449 62.8086 10.1855C62.375 10.3145 62.0996 10.4375 61.9824 10.5547C61.9355 10.6133 61.8535 10.8066 61.7363 11.1348C61.6309 11.4512 61.5137 11.8672 61.3848 12.3828C61.2559 12.8867 61.127 13.4668 60.998 14.123C60.8691 14.7676 60.752 15.4414 60.6465 16.1445C60.5527 16.8477 60.4766 17.5566 60.418 18.2715C60.3594 18.9863 60.3477 19.666 60.3828 20.3105C61.1914 20.0762 62.0059 19.877 62.8262 19.7129C63.6582 19.5371 64.5723 19.3496 65.5684 19.1504C66.0254 19.0684 66.5176 18.9453 67.0449 18.7812C67.5723 18.6172 68.0938 18.459 68.6094 18.3066C69.1367 18.1426 69.6348 18.002 70.1035 17.8848C70.5723 17.7676 70.9824 17.709 71.334 17.709C71.6504 17.709 71.9141 17.7383 72.125 17.7969C72.3359 17.8555 72.5117 17.9492 72.6523 18.0781C72.793 18.1953 72.9043 18.3535 72.9863 18.5527C73.0684 18.7402 73.1445 18.9688 73.2148 19.2383C73.2266 19.3203 73.1973 19.4199 73.127 19.5371C73.0566 19.6426 72.9629 19.7598 72.8457 19.8887C72.7402 20.0059 72.6289 20.1172 72.5117 20.2227C72.4062 20.3281 72.3242 20.416 72.2656 20.4863C72.1367 20.6152 71.9023 20.7383 71.5625 20.8555C71.2344 20.9609 70.8828 21.0547 70.5078 21.1367C70.1328 21.2188 69.7637 21.2891 69.4004 21.3477C69.0488 21.4062 68.7852 21.4531 68.6094 21.4883C68.0117 21.6055 67.3848 21.7285 66.7285 21.8574C66.084 21.9746 65.4453 22.1035 64.8125 22.2441C64.1914 22.373 63.5938 22.502 63.0195 22.6309C62.457 22.7598 61.9531 22.8887 61.5078 23.0176C61.0625 23.1465 60.6992 23.2695 60.418 23.3867C60.1484 23.5039 59.9902 23.6152 59.9434 23.7207C59.8496 23.9316 59.7734 24.207 59.7148 24.5469C59.6562 24.875 59.6035 25.2441 59.5566 25.6543C59.5215 26.0527 59.498 26.4746 59.4863 26.9199C59.4746 27.3652 59.4629 27.8047 59.4512 28.2383C59.4512 28.6719 59.457 29.0879 59.4688 29.4863C59.4805 29.8848 59.4922 30.2305 59.5039 30.5234C59.5039 30.9219 59.5098 31.3086 59.5215 31.6836C59.5449 32.0586 59.5156 32.4277 59.4336 32.791C59.3516 33.0488 59.2051 33.248 58.9941 33.3887C58.7949 33.5293 58.4727 33.582 58.0273 33.5469C57.9688 33.5352 57.834 33.4883 57.623 33.4062C57.4121 33.3359 57.1895 33.2129 56.9551 33.0371C56.7324 32.873 56.5273 32.6621 56.3398 32.4043C56.1641 32.1582 56.0762 31.8535 56.0762 31.4902C56.0645 30.0723 56.1289 28.7363 56.2695 27.4824C56.4219 26.2168 56.5742 24.9629 56.7266 23.7207C56.8438 22.7246 56.9785 21.6875 57.1309 20.6094C57.2832 19.5312 57.4355 18.4473 57.5879 17.3574C57.752 16.2676 57.916 15.1895 58.0801 14.123C58.2441 13.0449 58.3965 12.0078 58.5371 11.0117C58.5605 10.8242 58.5547 10.6367 58.5195 10.4492C58.4844 10.25 58.4375 10.0566 58.3789 9.86914C58.3203 9.66992 58.2559 9.47656 58.1855 9.28906C58.127 9.08984 58.0801 8.89648 58.0449 8.70898C58.0215 8.5332 58.0625 8.3457 58.168 8.14648C58.2734 7.94727 58.4082 7.76562 58.5723 7.60156C58.7363 7.42578 58.9121 7.28516 59.0996 7.17969C59.2871 7.0625 59.4629 7.00977 59.627 7.02148C59.8613 7.04492 60.0723 7.07422 60.2598 7.10938C60.459 7.14453 60.6465 7.17383 60.8223 7.19727C60.998 7.2207 61.1738 7.24414 61.3496 7.26758C61.5254 7.2793 61.7129 7.28516 61.9121 7.28516C62.252 7.28516 62.6387 7.25586 63.0723 7.19727C63.5176 7.13867 63.9746 7.06836 64.4434 6.98633C64.9238 6.89258 65.4043 6.79883 65.8848 6.70508C66.377 6.59961 66.834 6.50586 67.2559 6.42383C68.5566 6.18945 69.752 5.99609 70.8418 5.84375C71.9316 5.67969 72.9336 5.59766 73.8477 5.59766C73.9883 5.59766 74.1582 5.63281 74.3574 5.70312C74.5684 5.77344 74.7734 5.86133 74.9727 5.9668C75.1719 6.07227 75.3418 6.19531 75.4824 6.33594C75.6348 6.46484 75.7168 6.59961 75.7285 6.74023C75.752 7.04492 75.6875 7.39648 75.5352 7.79492C75.3945 8.18164 75.0723 8.54492 74.5684 8.88477ZM92.2871 24.125C91.3496 25.4258 90.3945 26.6035 89.4219 27.6582C88.4609 28.7129 87.5059 29.6152 86.5566 30.3652C85.6191 31.1035 84.6992 31.6777 83.7969 32.0879C82.9062 32.498 82.0742 32.7031 81.3008 32.7031C80.0469 32.7031 79.0566 32.1641 78.3301 31.0859C77.6152 30.0078 77.2578 28.4199 77.2578 26.3223C77.2578 25.1504 77.3281 23.8613 77.4688 22.4551C77.6094 21.0488 77.791 19.625 78.0137 18.1836C78.2363 16.7422 78.4824 15.3242 78.752 13.9297C79.0332 12.5352 79.3145 11.2637 79.5957 10.1152C79.8066 9.23633 80.0176 8.47461 80.2285 7.83008C80.4512 7.18555 80.6855 6.6582 80.9316 6.24805C81.1777 5.83789 81.4414 5.5332 81.7227 5.33398C82.0156 5.13477 82.3438 5.03516 82.707 5.03516C82.9414 5.03516 83.1523 5.08789 83.3398 5.19336C83.5391 5.29883 83.709 5.43359 83.8496 5.59766C83.9902 5.76172 84.0957 5.95508 84.166 6.17773C84.248 6.38867 84.2891 6.60547 84.2891 6.82812C84.2891 7.03906 84.2305 7.32617 84.1133 7.68945C84.0078 8.04102 83.8672 8.43359 83.6914 8.86719C83.5273 9.30078 83.3457 9.75781 83.1465 10.2383C82.9473 10.7187 82.7539 11.1816 82.5664 11.627C82.3789 12.0605 82.209 12.4648 82.0566 12.8398C81.916 13.2148 81.8164 13.5195 81.7578 13.7539C81.582 14.5156 81.4062 15.4062 81.2305 16.4258C81.0547 17.4336 80.8906 18.4824 80.7383 19.5723C80.5977 20.6504 80.4805 21.7285 80.3867 22.8066C80.293 23.873 80.2461 24.8516 80.2461 25.7422C80.2461 26.5273 80.3164 27.1777 80.457 27.6934C80.5977 28.1973 80.7734 28.6016 80.9844 28.9062C81.207 29.1992 81.4414 29.4102 81.6875 29.5391C81.9453 29.6562 82.1855 29.7148 82.4082 29.7148C82.8184 29.7148 83.2695 29.6094 83.7617 29.3984C84.2539 29.1758 84.7695 28.8711 85.3086 28.4844C85.8594 28.0977 86.4219 27.6465 86.9961 27.1309C87.582 26.6035 88.168 26.0352 88.7539 25.4258C89.3398 24.8164 89.9199 24.1777 90.4941 23.5098C91.0684 22.8301 91.6191 22.1445 92.1465 21.4531C92.3457 21.1836 92.5039 20.9785 92.6211 20.8379C92.7383 20.6973 92.8496 20.627 92.9551 20.627C93.084 20.627 93.1777 20.7031 93.2363 20.8555C93.3066 20.9961 93.3418 21.1836 93.3418 21.418C93.3418 21.6055 93.3125 21.8164 93.2539 22.0508C93.1953 22.2734 93.1191 22.5078 93.0254 22.7539C92.9316 22.9883 92.8203 23.2227 92.6914 23.457C92.5625 23.6914 92.4277 23.9141 92.2871 24.125ZM108.213 16.7422C108.213 16.8242 108.189 16.9648 108.143 17.1641C108.107 17.3516 108.061 17.5625 108.002 17.7969C107.943 18.0195 107.879 18.2422 107.809 18.4648C107.738 18.6875 107.68 18.8691 107.633 19.0098C107.516 19.3145 107.369 19.6895 107.193 20.1348C107.029 20.5801 106.848 21.0723 106.648 21.6113C106.461 22.1387 106.262 22.6895 106.051 23.2637C105.852 23.8379 105.658 24.4062 105.471 24.9688C105.295 25.5195 105.125 26.041 104.961 26.5332C104.809 27.0254 104.68 27.4531 104.574 27.8164C104.469 28.1797 104.334 28.6191 104.17 29.1348C104.018 29.6387 103.848 30.1836 103.66 30.7695C103.473 31.3555 103.279 31.9648 103.08 32.5977C102.881 33.2422 102.682 33.8809 102.482 34.5137C102.283 35.1465 102.09 35.7617 101.902 36.3594C101.727 36.957 101.562 37.5078 101.41 38.0117C101.305 38.3516 101.211 38.7148 101.129 39.1016C101.059 39.5 100.953 39.8691 100.812 40.209C100.684 40.5488 100.496 40.8301 100.25 41.0527C100.004 41.2871 99.6465 41.4043 99.1777 41.4043C98.9902 41.4043 98.8203 41.3574 98.668 41.2637C98.5156 41.1699 98.3867 41.0527 98.2812 40.9121C98.1758 40.7715 98.0938 40.6133 98.0352 40.4375C97.9766 40.2617 97.9473 40.0918 97.9473 39.9277C97.9473 39.6582 98.0117 39.3125 98.1406 38.8906C98.2812 38.4688 98.4512 38 98.6504 37.4844C98.8496 36.9688 99.0605 36.4238 99.2832 35.8496C99.5176 35.2754 99.7344 34.7012 99.9336 34.127C100.227 33.248 100.508 32.416 100.777 31.6309C101.059 30.8457 101.299 30.1484 101.498 29.5391C101.697 28.918 101.855 28.4141 101.973 28.0273C102.102 27.6289 102.166 27.3828 102.166 27.2891C102.166 27.1719 102.148 27.0781 102.113 27.0078C102.078 26.9258 102.014 26.8848 101.92 26.8848C101.838 26.8848 101.662 26.9785 101.393 27.166C101.123 27.3418 100.783 27.5645 100.373 27.834C99.9746 28.1035 99.5234 28.3965 99.0195 28.7129C98.5273 29.0176 98.0117 29.3047 97.4727 29.5742C96.9453 29.8438 96.418 30.0723 95.8906 30.2598C95.3633 30.4355 94.8652 30.5234 94.3965 30.5234C93.6699 30.5234 93.0254 30.4004 92.4629 30.1543C91.9121 29.9082 91.4434 29.5977 91.0566 29.2227C90.6816 28.8359 90.3945 28.4141 90.1953 27.957C89.9961 27.4883 89.8965 27.0371 89.8965 26.6035C89.8965 26.252 89.9316 25.8184 90.002 25.3027C90.084 24.7754 90.1895 24.2129 90.3184 23.6152C90.459 23.0059 90.623 22.3789 90.8105 21.7344C90.998 21.0898 91.1973 20.4688 91.4082 19.8711C91.6191 19.2734 91.8359 18.7168 92.0586 18.2012C92.293 17.6855 92.5273 17.2578 92.7617 16.918C93.0781 16.4492 93.3652 16.1211 93.623 15.9336C93.8809 15.7461 94.1387 15.6523 94.3965 15.6523C94.6309 15.6523 94.8184 15.6934 94.959 15.7754C95.1113 15.8574 95.2285 15.9688 95.3105 16.1094C95.4043 16.25 95.4629 16.4141 95.4863 16.6016C95.5215 16.7891 95.5391 16.9883 95.5391 17.1992C95.5391 17.3633 95.4453 17.6445 95.2578 18.043C95.0703 18.4297 94.8418 18.9043 94.5723 19.4668C94.3145 20.0176 94.0391 20.6387 93.7461 21.3301C93.4648 22.0215 93.2246 22.748 93.0254 23.5098C92.9082 23.8848 92.8262 24.3008 92.7793 24.7578C92.7441 25.2031 92.7266 25.6133 92.7266 25.9883C92.7266 26.3281 92.8145 26.6094 92.9902 26.832C93.166 27.0547 93.377 27.2363 93.623 27.377C93.8691 27.5059 94.1152 27.5996 94.3613 27.6582C94.6191 27.7168 94.8301 27.7461 94.9941 27.7461C95.5098 27.7461 96.0195 27.6582 96.5234 27.4824C97.0273 27.2949 97.5195 27.0664 98 26.7969C98.4922 26.5273 98.9668 26.2402 99.4238 25.9355C99.8926 25.6191 100.35 25.3379 100.795 25.0918C101.193 24.8574 101.604 24.5703 102.025 24.2305C102.447 23.8906 102.816 23.5039 103.133 23.0703C103.273 22.8828 103.438 22.5488 103.625 22.0684C103.812 21.5762 104.006 21.0254 104.205 20.416C104.404 19.8066 104.604 19.1797 104.803 18.5352C105.002 17.8789 105.178 17.293 105.33 16.7773C105.518 16.1562 105.752 15.6992 106.033 15.4062C106.326 15.1133 106.607 14.9668 106.877 14.9668C107.193 14.9668 107.439 15.0195 107.615 15.125C107.791 15.2305 107.92 15.3652 108.002 15.5293C108.096 15.6934 108.154 15.8809 108.178 16.0918C108.201 16.3027 108.213 16.5195 108.213 16.7422Z" fill="white"/>
</svg>
